<svg width="375" height="812" viewBox="0 0 375 812" fill="none" xmlns="http://www.w3.org/2000/svg">
<g clip-path="url(#clip0_61385_181)">
<rect width="375" height="812" fill="#202024"/>
<circle cx="278" cy="99" r="300" transform="rotate(-180 278 99)" fill="url(#paint0_radial_61385_181)"/>
<circle cx="98" cy="99" r="300" transform="rotate(-180 98 99)" fill="url(#paint1_radial_61385_181)"/>
<mask id="mask0_61385_181" style="mask-type:alpha" maskUnits="userSpaceOnUse" x="0" y="9" width="375" height="812">
<rect y="9" width="375" height="812" fill="#202024"/>
</mask>
<g mask="url(#mask0_61385_181)">
<path d="M375 177.101V-301.699L187.478 -409.486L-0.0446777 -301.699V177.101L187.478 284.894L375 177.101Z" fill="url(#paint2_linear_61385_181)"/>
<g style="mix-blend-mode:luminosity" opacity="0.4">
<path d="M1.83662 70.3931V177.797L95.1275 231.505L188.418 177.797V70.3931L95.1275 16.6858L1.83662 70.3931Z" fill="url(#paint3_linear_61385_181)"/>
<path d="M1.83662 -37.0166V70.3877L95.1275 124.095L188.418 70.3877V-37.0166L95.1275 -90.7239L1.83662 -37.0166Z" fill="url(#paint4_linear_61385_181)"/>
<path d="M281.709 -90.6961V16.7082L188.418 70.4155L95.1274 16.7082V-90.6961L188.418 -144.403L281.709 -90.6961Z" fill="url(#paint5_linear_61385_181)"/>
<path d="M188.418 177.797V70.3927L281.709 16.6854L375 70.3927V177.797L281.709 231.504L188.418 177.797Z" fill="url(#paint6_linear_61385_181)"/>
<path d="M375 -37.0166V70.3877L281.709 124.095L188.418 70.3877V-37.0166L281.709 -90.7239L375 -37.0166Z" fill="url(#paint7_linear_61385_181)"/>
<path d="M281.709 231.527V124.123L188.418 70.4155L95.1274 124.123L95.1274 231.527L188.418 285.234L281.709 231.527Z" fill="url(#paint8_linear_61385_181)"/>
</g>
</g>
</g>
<defs>
<radialGradient id="paint0_radial_61385_181" cx="0" cy="0" r="1" gradientUnits="userSpaceOnUse" gradientTransform="translate(278 99) rotate(90) scale(300)">
<stop stop-color="#FFC323"/>
<stop offset="1" stop-color="#121214" stop-opacity="0"/>
</radialGradient>
<radialGradient id="paint1_radial_61385_181" cx="0" cy="0" r="1" gradientUnits="userSpaceOnUse" gradientTransform="translate(98 99) rotate(90) scale(300)">
<stop stop-color="#FF3D6E"/>
<stop offset="1" stop-color="#121214" stop-opacity="0"/>
</radialGradient>
<linearGradient id="paint2_linear_61385_181" x1="-67.9497" y1="67.9385" x2="436.115" y2="241.357" gradientUnits="userSpaceOnUse">
<stop stop-color="#FF008E"/>
<stop offset="1" stop-color="#FFCD1E"/>
</linearGradient>
<linearGradient id="paint3_linear_61385_181" x1="95.1275" y1="226.565" x2="2.23833" y2="68.047" gradientUnits="userSpaceOnUse">
<stop stop-color="#8257E5"/>
<stop offset="1" stop-color="#FF008E" stop-opacity="0"/>
</linearGradient>
<linearGradient id="paint4_linear_61385_181" x1="95.1275" y1="119.155" x2="2.23831" y2="-39.3627" gradientUnits="userSpaceOnUse">
<stop stop-color="#8257E5"/>
<stop offset="1" stop-color="#FF008E" stop-opacity="0"/>
</linearGradient>
<linearGradient id="paint5_linear_61385_181" x1="95.1275" y1="-96.7323" x2="281.421" y2="15.6857" gradientUnits="userSpaceOnUse">
<stop stop-color="#FF008E" stop-opacity="0"/>
<stop offset="1" stop-color="#FFCD1E"/>
</linearGradient>
<linearGradient id="paint6_linear_61385_181" x1="375" y1="183.833" x2="188.706" y2="71.4152" gradientUnits="userSpaceOnUse">
<stop stop-color="#FF008E" stop-opacity="0"/>
<stop offset="1" stop-color="#FFCD1E"/>
</linearGradient>
<linearGradient id="paint7_linear_61385_181" x1="281.709" y1="119.155" x2="374.598" y2="-39.3627" gradientUnits="userSpaceOnUse">
<stop stop-color="#8257E5"/>
<stop offset="1" stop-color="#FF008E" stop-opacity="0"/>
</linearGradient>
<linearGradient id="paint8_linear_61385_181" x1="188.418" y1="75.3552" x2="281.307" y2="233.873" gradientUnits="userSpaceOnUse">
<stop stop-color="#8257E5"/>
<stop offset="1" stop-color="#FF008E" stop-opacity="0"/>
</linearGradient>
<clipPath id="clip0_61385_181">
<rect width="375" height="812" fill="white"/>
</clipPath>
</defs>
</svg>
